HIERARCHY
ROOT Hips
{
  OFFSET 1.44925e-005 102.336 -0.101585
  CHANNELS 6 Xposition Yposition Zposition Zrotation Xrotation Yrotation
  JOINT LeftUpLeg
  {
    OFFSET 8.9458 -8.66707 0.101652
    CHANNELS 3 Zrotation Xrotation Yrotation
    JOINT LeftLeg
    {
      OFFSET 0 -44.4227 1.3727
      CHANNELS 3 Zrotation Xrotation Yrotation
      JOINT LeftFoot
      {
        OFFSET -0.253549 -42.0924 -1.46059
        CHANNELS 3 Zrotation Xrotation Yrotation
        JOINT LeftToes
        {
          OFFSET -0.04 -4.41509 8.4991
          CHANNELS 3 Zrotation Xrotation Yrotation
          End Site
          {
            OFFSET 0.08 -0.047448 9.77979
          }
        }
      }
    }
  }
  JOINT Spine
  {
    OFFSET 0 11.8905 0
    CHANNELS 3 Zrotation Xrotation Yrotation
    JOINT Spine1
    {
      OFFSET 0 25.6574 0.127663
      CHANNELS 3 Zrotation Xrotation Yrotation
      JOINT RightShoulder
      {
        OFFSET -8.99 -0.362252 -0.22
        CHANNELS 3 Zrotation Xrotation Yrotation
        JOINT RightArm
        {
          OFFSET -10.2827 -0.00338 0.322123
          CHANNELS 3 Zrotation Xrotation Yrotation
          JOINT RightForeArm
          {
            OFFSET -26.364 0.099144 -1.42434
            CHANNELS 3 Zrotation Xrotation Yrotation
            JOINT RightHand
            {
              OFFSET -22.0324 0.085362 1.02216
              CHANNELS 3 Zrotation Xrotation Yrotation
              End Site
              {
                OFFSET -13.3284 -0.6 1.50291
              }
            }
          }
        }
      }
      JOINT LeftShoulder1
      {
        OFFSET 8.99 -0.362252 -0.22
        CHANNELS 3 Zrotation Xrotation Yrotation
        JOINT LeftArm
        {
          OFFSET 10.2827 -0.00337999 0.322123
          CHANNELS 3 Zrotation Xrotation Yrotation
          JOINT LeftForeArm
          {
            OFFSET 26.2597 0.099144 -1.42434
            CHANNELS 3 Zrotation Xrotation Yrotation
            JOINT LeftHand
            {
              OFFSET 22.0902 0.085362 1.02216
              CHANNELS 3 Zrotation Xrotation Yrotation
              End Site
              {
                OFFSET 13.419 -0.6 1.50291
              }
            }
          }
        }
      }
      JOINT Head
      {
        OFFSET 0 8.73416 0.011341
        CHANNELS 3 Zrotation Xrotation Yrotation
        End Site
        {
          OFFSET -0.29 12.7742 2.51395
        }
      }
    }
  }
  JOINT RightUpLeg
  {
    OFFSET -8.9458 -8.66707 0.101652
    CHANNELS 3 Zrotation Xrotation Yrotation
    JOINT RightLeg
    {
      OFFSET 0 -44.4227 1.3727
      CHANNELS 3 Zrotation Xrotation Yrotation
      JOINT RightFoot
      {
        OFFSET 0.253549 -42.0924 -1.46059
        CHANNELS 3 Zrotation Xrotation Yrotation
        JOINT RightToes
        {
          OFFSET 0.04 -4.41509 8.4991
          CHANNELS 3 Zrotation Xrotation Yrotation
          End Site
          {
            OFFSET -0.08 -0.137448 9.77979
          }
        }
      }
    }
  }
}
MOTION
Frames:	12
Frame Time:	0.0333333
40.7661 101.195 2.90339 -7.21731 1.27102 -93.7564 -3.34551 -0.709968 1.99051 0.0806985 17.3084 18.0677 2.36086 -14.2833 0.210617 -1.31915e-009 8.75233e-006 -1.46406e-008 -1.8401 13.9486 -1.14024 0.691281 -2.38144 -1.57827 37.7764 1.76788 0.0248571 38.5059 -11.8568 -11.11 5.09628 32.8094 13.927 -4.61526 9.76567 -1.69192 -42.5487 3.47245 -3.5764 -30.0074 -13.8453 -2.7645 9.69056 34.8833 -39.7496 5.82328 9.61819 -0.917488 2.26896 -16.2615 0.0405966 -0.475617 -10.6886 3.08906 -1.24617 40.4716 -18.3624 12.1089 -13.3732 0.405868 0.0462048 0.000530889 0.662642 
42.4081 101.189 2.87544 -7.12126 1.18857 -93.862 -3.19403 -1.88402 2.07188 -0.147629 17.2806 17.954 2.49052 -13.2774 0.189747 -1.31915e-009 8.75233e-006 -1.46406e-008 -1.70713 13.3661 -0.918752 0.394957 -2.5499 -1.31391 37.5726 1.76172 0.027901 38.4475 -11.7674 -9.5746 4.76515 32.0068 14.5157 -4.67671 9.76531 -1.6115 -42.4796 3.46596 -3.57395 -30.2596 -13.0833 -1.09502 8.56663 34.5082 -37.3944 5.82328 9.61819 -0.917488 2.10323 -15.8363 -0.409264 -0.863763 -8.3019 3.81158 -1.27847 42.462 -18.1785 12.6957 -13.4873 0.448388 0.0462048 0.000530889 0.662642 
44.1093 101.135 2.79545 -6.87689 0.86205 -93.9381 -3.29373 -3.34669 1.89034 -0.334719 17.387 17.9617 2.31605 -12.2284 0.152903 -1.31915e-009 8.75233e-006 -1.46406e-008 -1.85149 12.7522 -0.656263 0.157689 -2.81513 -1.05226 37.2246 1.75313 0.0374712 38.748 -10.6353 -8.1258 4.21097 29.5594 15.904 -4.75435 9.76439 -1.67174 -42.5469 3.47675 -3.58542 -30.3104 -12.3062 0.735139 7.0937 33.7038 -34.6993 5.82328 9.61819 -0.917488 1.88805 -15.4513 -0.717264 -1.57795 -5.91504 4.12746 -1.28368 43.8935 -17.5377 13.3546 -13.9821 0.538673 0.0462048 0.000530889 0.662642 
45.8853 101.05 2.66621 -6.59544 0.433922 -93.9148 -3.48429 -4.86769 1.61005 -0.519348 17.3754 18.0874 2.14398 -10.9824 0.114074 -1.31915e-009 8.75233e-006 -1.46406e-008 -1.98322 12.1068 -0.422022 -0.128132 -2.99428 -0.795559 37.0205 1.74452 0.0348928 39.0899 -8.63033 -6.79887 3.56548 25.7398 18.041 -5.02112 9.75824 -1.74113 -42.58 3.48167 -3.59024 -30.3078 -11.5291 2.58195 5.52617 32.5942 -31.9066 5.82328 9.61819 -0.917488 1.68517 -15.1996 -1.0185 -2.37652 -3.40489 4.1552 -1.27875 44.6909 -17.018 13.3274 -14.8647 0.636845 0.0462048 0.000530889 0.662642 
47.7551 100.907 2.48171 -6.3919 0.0881545 -93.735 -3.57752 -6.34186 1.42411 -0.676525 17.3152 18.111 2.37559 -9.68242 0.085243 -1.31915e-009 8.75233e-006 -1.46406e-008 -1.83004 11.4838 -0.282831 -0.559624 -2.96638 -0.568964 36.9971 1.73987 0.0261107 39.2847 -6.92712 -5.49326 3.03198 22.16 20.5476 -5.5638 9.74011 -1.71549 -42.4786 3.46891 -3.58001 -30.3769 -10.7872 4.3164 4.15625 31.4689 -29.236 5.82328 9.61819 -0.917488 1.54395 -15.1656 -1.42221 -3.02143 -0.743215 3.93419 -1.26916 44.8852 -16.7207 13.0432 -15.6033 0.701029 0.0462048 0.000530889 0.662642 
49.762 100.671 2.23112 -6.31767 -0.177961 -93.4872 -3.60797 -7.84713 1.29742 -0.737194 17.4263 17.9657 2.96547 -8.51069 0.0581999 -1.31915e-009 8.75233e-006 -1.46406e-008 -1.5266 11.0377 -0.161371 -1.02675 -2.83336 -0.342408 36.8974 1.73685 0.0275475 39.3634 -6.99726 -4.19041 2.58069 20.8802 23.1794 -6.06906 9.71913 -1.60041 -42.4073 3.45794 -3.56959 -30.4154 -10.0322 5.91778 2.98985 30.3504 -26.7409 5.82328 9.61819 -0.917488 1.39351 -15.2807 -1.86598 -3.53191 1.96167 3.45496 -1.24046 44.5825 -16.2226 13.2248 -16.5849 0.825521 0.0462048 0.000530889 0.662642 
51.9412 100.358 1.91075 -6.33086 -0.451781 -93.2446 -3.66784 -9.49608 1.13622 -0.679048 17.7587 17.7993 3.36602 -7.23804 0.0162348 -1.31915e-009 8.75233e-006 -1.46406e-008 -1.32647 10.873 0.0270469 -1.3036 -2.80065 -0.0825873 36.5588 1.72891 0.0378783 39.4739 -8.85344 -2.98762 1.94048 22.1949 26.0233 -6.14482 9.71152 -1.4835 -42.5169 3.46658 -3.57259 -30.2545 -9.48631 7.48111 1.96872 29.3812 -24.6027 5.82328 9.61819 -0.917488 1.15047 -15.3517 -2.26598 -3.94527 4.53591 2.70031 -1.18797 43.8586 -15.404 13.3971 -18.4033 1.04716 0.0462048 0.000530889 0.662642 
54.3075 99.968 1.52274 -6.38143 -0.693107 -92.94 -3.70782 -11.3506 1.00387 -0.49253 18.3214 17.6138 3.37664 -5.6772 -0.0399141 -1.31915e-009 8.75233e-006 -1.46406e-008 -1.16424 10.9505 0.225954 -1.38727 -2.89371 0.176409 36.143 1.71648 0.0444681 39.7256 -10.3961 -1.85354 0.996139 23.734 29.1535 -5.77101 9.72455 -1.49702 -42.6902 3.48349 -3.57826 -29.8171 -9.80111 9.09175 1.1905 29.214 -23.2076 5.82328 9.61819 -0.917488 0.869296 -15.3297 -2.66057 -4.11105 6.82172 1.67846 -1.12716 42.7172 -14.5588 13.067 -20.082 1.20657 0.0462048 0.000530889 0.662642 
56.8779 99.4575 1.07245 -6.47819 -0.769311 -92.5853 -3.62266 -13.3618 0.837355 -0.169797 19.0477 17.3624 3.49167 -4.143 -0.0989383 -1.31915e-009 8.75233e-006 -1.46406e-008 -0.739929 11.1612 0.372697 -1.55628 -2.91184 0.432031 35.921 1.70921 0.0462363 39.9304 -11.49 -0.642747 0.097023 24.8684 32.2847 -5.27189 9.74909 -1.70792 -42.7164 3.48532 -3.57638 -29.4032 -10.2663 10.6306 0.844969 29.1499 -22.7167 5.82328 9.61819 -0.917488 0.676569 -15.3729 -3.11011 -3.93375 8.80756 0.535845 -1.06089 40.8654 -13.7306 13.3765 -20.2714 1.26109 0.0462048 0.000530889 0.662642 
59.6796 98.8333 0.555596 -6.60953 -0.682568 -92.3895 -3.37055 -15.4223 0.359203 0.177972 19.6355 17.379 3.64724 -2.74282 -0.156282 -1.31915e-009 8.75233e-006 -1.46406e-008 -0.0266858 11.4619 0.54795 -1.93943 -2.76986 0.769483 35.941 1.71135 0.0520235 40.0471 -12.0454 0.702635 -0.469945 25.3885 35.1388 -5.01448 9.76572 -1.94961 -42.5764 3.46764 -3.56228 -29.1535 -10.6795 11.9358 0.861513 28.8836 -22.8897 5.82328 9.61819 -0.917488 0.583141 -15.5453 -3.56045 -3.54062 10.6741 -0.524434 -0.97747 37.5924 -12.8214 15.285 -20.0754 1.4596 0.0462048 0.000530889 0.662642 
62.745 98.1863 -0.0493663 -6.68037 -0.482727 -92.4709 -2.83152 -17.4947 -0.259154 0.432634 19.7853 17.9697 2.62974 -0.981329 -0.159282 -1.31915e-009 8.75233e-006 -1.46406e-008 0.752003 11.9567 0.812589 -2.31347 -2.69384 1.20138 36.0278 1.71674 0.0554155 40.1682 -12.0308 2.23008 -0.824823 25.6059 37.543 -5.16551 9.76069 -1.93814 -42.4619 3.45341 -3.55114 -28.9256 -11.1911 13.0011 0.990487 28.4677 -23.3776 5.82328 9.61819 -0.917488 0.45023 -15.7315 -3.91667 -2.89296 12.4984 -1.5836 -0.880819 32.4928 -12.2395 16.8994 -22.1042 1.94133 0.0462048 0.000530889 0.662642 
66.0862 97.6245 -0.725414 -6.64731 0.105745 -92.6755 -1.61004 -19.5257 -0.473766 0.617799 19.5079 18.8128 -0.0106277 0.733478 -0.0193436 -1.31915e-009 8.75233e-006 -1.46406e-008 1.95652 12.7931 1.003 -2.58598 -2.83769 1.59293 36.0919 1.72084 0.0540351 40.3628 -11.4883 4.24474 -1.20588 25.8802 39.0945 -5.57429 9.73783 -1.66581 -42.5874 3.47239 -3.5702 -28.5498 -11.7872 13.7826 1.06713 27.9987 -23.9416 5.82328 9.61819 -0.917488 0.139098 -16.0326 -4.18699 -1.50697 13.7768 -3.20305 -0.893793 26.7037 -12.2772 15.5374 -26.3051 2.33361 0.0462048 0.000530889 0.662642 
